# xmcd
#
# Track frame offsets:
#	332
#	23735
#	43217
#	64127
#	82765
#	100277
#	113815
#	133965
#	151847
#	170627
#	191672
#	209295
#
# Disc length: 3167 seconds
#
# Revision: 0
# Processed by: cddbd v1.5.2PL0 Copyright (c) Steve Scherf et al.
# Submitted via: audiograbber 1.83.01
#
DISCID=a40c5b0c
DTITLE=Rita Coolidge - That's The Way Love Is
DYEAR=1984
DGENRE=
TTITLE0=I'm Still Learning About Love
TTITLE1=I Stand In Wonder
TTITLE2=Do The Best You Can
TTITLE3=Bed Of Roses
TTITLE4=Someday
TTITLE5=Hello Blues
TTITLE6=Fascination
TTITLE7=That's The Way Love Is
TTITLE8=Old Fashioned Heart
TTITLE9=Fire Me Back
TTITLE10=I Would Not Change A Thing
TTITLE11=Medley: Someday - Bed Of Roses - That's The Way Love Is - I Stand In W
TTITLE11=onder - Old Fashioned Heart
EXTD=Das Jahr wurde geschätzt,  leider ist kein Hinweis auf das Erscheinungsjah
EXTD=r zu finden.
EXTT0=
EXTT1=
EXTT2=
EXTT3=
EXTT4=
EXTT5=
EXTT6=
EXTT7=
EXTT8=
EXTT9=
EXTT10=
EXTT11=
PLAYORDER=
